<svg width="27" height="27" viewBox="0 0 27 27" fill="none" xmlns="http://www.w3.org/2000/svg">
<path d="M13.8295 5.9545C13.3902 6.39384 13.3902 7.10616 13.8295 7.5455L18.659 12.375H5.625C5.00368 12.375 4.5 12.8787 4.5 13.5C4.5 14.1213 5.00368 14.625 5.625 14.625H18.659L13.8295 19.4545C13.3902 19.8938 13.3902 20.6062 13.8295 21.0455C14.2688 21.4848 14.9812 21.4848 15.4205 21.0455L22.1705 14.2955C22.3815 14.0845 22.5 13.7984 22.5 13.5C22.5 13.2016 22.3815 12.9155 22.1705 12.7045L15.4205 5.9545C14.9812 5.51517 14.2688 5.51517 13.8295 5.9545Z" fill="#3C6553"/>
</svg>
