<svg width="27" height="27" viewBox="0 0 27 27" fill="none" xmlns="http://www.w3.org/2000/svg">
<path d="M13.1705 21.0455C13.6098 20.6062 13.6098 19.8938 13.1705 19.4545L8.34099 14.625H21.375C21.9963 14.625 22.5 14.1213 22.5 13.5C22.5 12.8787 21.9963 12.375 21.375 12.375H8.34099L13.1705 7.54549C13.6098 7.10615 13.6098 6.39384 13.1705 5.9545C12.7312 5.51517 12.0188 5.51517 11.5795 5.9545L4.8295 12.7045C4.61853 12.9155 4.5 13.2016 4.5 13.5C4.5 13.7984 4.61853 14.0845 4.8295 14.2955L11.5795 21.0455C12.0188 21.4848 12.7312 21.4848 13.1705 21.0455Z" fill="white"/>
</svg>
